<svg xmlns="http://www.w3.org/2000/svg" width="370" height="60" viewBox="0 0 370 60">
  <g id="WLA-f" transform="translate(-509.931)">
    <rect id="Rectangle_27716" data-name="Rectangle 27716" width="370" height="60" transform="translate(509.931)" fill="#b673f1" opacity="0"/>
    <g id="wla-fr" transform="translate(511.019 13.934)">
      <g id="Groupe_23399" data-name="Groupe 23399" transform="translate(0 0.115)">
        <path id="Tracé_13631" data-name="Tracé 13631" d="M30.039,2.7C10.067,2.243,1,10.507,1,16.935c0,4.591,3.673,13.429,29.268,12.281-4.362,0-25.481-1.033-25.481-11.822C4.788,7.523,23.037,2.7,30.039,2.7Z" transform="translate(-1 -0.062)" fill="#fff"/>
        <g id="Groupe_23384" data-name="Groupe 23384" transform="translate(3.902 21.808)">
          <g id="Groupe_23383" data-name="Groupe 23383">
            <path id="Tracé_13632" data-name="Tracé 13632" d="M7.7,23.051A1.913,1.913,0,0,1,9.536,21.1a1.842,1.842,0,0,1,1.836,1.951A1.913,1.913,0,0,1,9.536,25,1.913,1.913,0,0,1,7.7,23.051Z" transform="translate(-3.912 -19.149)" fill="#fff" fill-rule="evenodd"/>
            <path id="Tracé_13633" data-name="Tracé 13633" d="M4.4,21.007A1.547,1.547,0,0,1,5.892,19.4a1.611,1.611,0,0,1,0,3.214A1.714,1.714,0,0,1,4.4,21.007Z" transform="translate(-4.4 -19.4)" fill="#fff" fill-rule="evenodd"/>
            <path id="Tracé_13634" data-name="Tracé 13634" d="M11.9,24.51a2.3,2.3,0,1,1,2.3,2.41A2.33,2.33,0,0,1,11.9,24.51Z" transform="translate(-3.292 -19.001)" fill="#fff" fill-rule="evenodd"/>
            <path id="Tracé_13635" data-name="Tracé 13635" d="M17.3,25.484a2.872,2.872,0,1,1,2.869,2.984A2.94,2.94,0,0,1,17.3,25.484Z" transform="translate(-2.494 -18.942)" fill="#fff" fill-rule="evenodd"/>
            <path id="Tracé_13636" data-name="Tracé 13636" d="M23.9,25.529A3.235,3.235,0,0,1,27.114,22.2a3.309,3.309,0,0,1,3.214,3.329,3.216,3.216,0,1,1-6.428,0Z" transform="translate(-1.518 -18.986)" fill="#fff" fill-rule="evenodd"/>
          </g>
        </g>
        <g id="Groupe_23398" data-name="Groupe 23398" transform="translate(1.377)">
          <path id="Tracé_13637" data-name="Tracé 13637" d="M48.341,24.762c-2.181,2.41-7,6.428-18.824,7C14.481,32.566,5.3,26.024,2.2,20.4c1.722,2.64,8.034,8.034,19.971,9.182S39.962,29.123,48.341,24.762Z" transform="translate(-2.2 2.556)" fill="#fff"/>
          <g id="Groupe_23397" data-name="Groupe 23397" transform="translate(13.888)">
            <g id="Groupe_23396" data-name="Groupe 23396" transform="translate(15.265)">
              <g id="Groupe_23390" data-name="Groupe 23390">
                <g id="Groupe_23385" data-name="Groupe 23385" transform="translate(0 0)">
                  <path id="Tracé_13638" data-name="Tracé 13638" d="M27.6.4h.459l.459,1.951h0L28.977.4h.23l.459,1.951h0L30.125.4h.459L29.9,3.04h-.344l-.574-1.951h0L28.518,3.04h-.344Z" transform="translate(-27.6 -0.4)" fill="#fff"/>
                  <path id="Tracé_13639" data-name="Tracé 13639" d="M30.915.859a.966.966,0,0,1,.8-.459.826.826,0,0,1,.8.459c.115.115.115.23.115.918s0,.689-.115.918a.966.966,0,0,1-.8.459.826.826,0,0,1-.8-.459c-.115-.115-.115-.23-.115-.918S30.8.974,30.915.859Zm.459,1.607c.115.115.23.23.344.23a.6.6,0,0,0,.459-.23c.115-.115.115-.23.115-.8s0-.574-.115-.8a.6.6,0,0,0-.459-.23c-.23,0-.344.115-.344.23-.115.115-.115.23-.115.8C31.144,2.236,31.259,2.351,31.374,2.466Z" transform="translate(-27.127 -0.4)" fill="#fff"/>
                  <path id="Tracé_13640" data-name="Tracé 13640" d="M33.3.4h1.033a.632.632,0,0,1,.574.23.877.877,0,0,1,.23.574.775.775,0,0,1-.459.689l.574,1.148h-.459l-.574-1.148h-.459V3.04h-.344V.4Zm.344,1.148h.574a.42.42,0,0,0,.459-.459.422.422,0,0,0-.115-.344c-.115,0-.115-.115-.23-.115h-.574v.918Z" transform="translate(-26.758 -0.4)" fill="#fff"/>
                  <path id="Tracé_13641" data-name="Tracé 13641" d="M35.7.4h.344V2.7h1.263V3.04H35.7V.4Z" transform="translate(-26.403 -0.4)" fill="#fff"/>
                  <path id="Tracé_13642" data-name="Tracé 13642" d="M38,.4h.918a.866.866,0,0,1,.8.459c.115.23.115.344.115.918s0,.689-.115.918a.966.966,0,0,1-.8.459H38Zm.344,2.3H38.8a.6.6,0,0,0,.459-.23c.115-.115.115-.23.115-.689s0-.574-.115-.689A.6.6,0,0,0,38.8.859h-.459Z" transform="translate(-26.063 -0.4)" fill="#fff"/>
                  <path id="Tracé_13643" data-name="Tracé 13643" d="M41.7.4h.344V2.7h1.263V3.04H41.7V.4Z" transform="translate(-25.516 -0.4)" fill="#fff"/>
                </g>
                <g id="Groupe_23386" data-name="Groupe 23386" transform="translate(18.594 0)">
                  <path id="Tracé_13644" data-name="Tracé 13644" d="M43.915.859a.966.966,0,0,1,.8-.459.826.826,0,0,1,.8.459c.115.115.115.23.115.918s0,.689-.115.918a.966.966,0,0,1-.8.459.826.826,0,0,1-.8-.459c-.115-.115-.115-.23-.115-.918A3.176,3.176,0,0,1,43.915.859Zm.459,1.607a.6.6,0,0,0,.459.23c.23,0,.344-.115.344-.23.115-.115.115-.23.115-.8s0-.574-.115-.8c-.115-.115-.23-.23-.344-.23a.6.6,0,0,0-.459.23c-.115.115-.115.23-.115.8S44.259,2.351,44.374,2.466Z" transform="translate(-43.8 -0.4)" fill="#fff"/>
                </g>
                <g id="Groupe_23387" data-name="Groupe 23387" transform="translate(21.119 0)">
                  <path id="Tracé_13645" data-name="Tracé 13645" d="M46.8.744H46V.4h1.836V.744h-.689v2.3H46.8Z" transform="translate(-46 -0.4)" fill="#fff"/>
                  <path id="Tracé_13646" data-name="Tracé 13646" d="M48.789.744H48.1V.4h1.836V.744h-.689v2.3H48.9V.744Z" transform="translate(-45.69 -0.4)" fill="#fff"/>
                  <path id="Tracé_13647" data-name="Tracé 13647" d="M50.4.4h1.607V.744H50.744v.8h1.033v.344H50.744v.8h1.263V3.04H50.4Z" transform="translate(-45.35 -0.4)" fill="#fff"/>
                </g>
                <g id="Groupe_23388" data-name="Groupe 23388" transform="translate(28.694 0)">
                  <path id="Tracé_13648" data-name="Tracé 13648" d="M52.6.4h1.033a.632.632,0,0,1,.574.23.877.877,0,0,1,.23.574.775.775,0,0,1-.459.689l.574,1.148h-.459l-.574-1.148h-.459V3.04h-.344V.4Zm.459,1.148h.574a.42.42,0,0,0,.459-.459.422.422,0,0,0-.115-.344c-.115,0-.115-.115-.344-.115h-.574Z" transform="translate(-52.6 -0.4)" fill="#fff"/>
                </g>
                <g id="Groupe_23389" data-name="Groupe 23389" transform="translate(31.105)">
                  <path id="Tracé_13649" data-name="Tracé 13649" d="M55.5,2.007,54.7.4h.344l.574,1.148L56.192.4h.459l-.8,1.607V3.155H55.5Z" transform="translate(-54.7 -0.4)" fill="#fff"/>
                </g>
              </g>
              <g id="Groupe_23395" data-name="Groupe 23395" transform="translate(10.33 3.673)">
                <g id="Groupe_23391" data-name="Groupe 23391">
                  <path id="Tracé_13650" data-name="Tracé 13650" d="M38.207,5.766H37.174l-.115.574H36.6l.918-2.64h.344l.918,2.64h-.459Zm-.115-.344-.344-1.148h0L37.4,5.422Z" transform="translate(-36.6 -3.585)" fill="#fff"/>
                  <path id="Tracé_13651" data-name="Tracé 13651" d="M39.344,5.766a1.631,1.631,0,0,0,.689.23c.344,0,.459-.115.459-.344a.3.3,0,0,0-.344-.344H39.8a.759.759,0,0,1-.689-.8.785.785,0,0,1,.8-.8,1.659,1.659,0,0,1,.8.23l-.23.344c0-.115-.23-.23-.459-.23s-.459.115-.459.344a.366.366,0,0,0,.344.344h.344a.838.838,0,0,1,.689.8.819.819,0,0,1-.918.8A1.851,1.851,0,0,1,39,6Z" transform="translate(-36.245 -3.585)" fill="#fff"/>
                  <path id="Tracé_13652" data-name="Tracé 13652" d="M41.644,5.766a1.631,1.631,0,0,0,.689.23c.344,0,.459-.115.459-.344a.3.3,0,0,0-.344-.344H42.1a.759.759,0,0,1-.689-.8.785.785,0,0,1,.8-.8,1.659,1.659,0,0,1,.8.23l-.23.344c0-.115-.23-.23-.459-.23s-.459.115-.459.344a.366.366,0,0,0,.344.344h.344a.873.873,0,0,1,.689.918c0,.459-.344.689-.918.689A1.851,1.851,0,0,1,41.3,6Z" transform="translate(-35.905 -3.585)" fill="#fff"/>
                  <path id="Tracé_13653" data-name="Tracé 13653" d="M43.915,4.159a.966.966,0,0,1,.8-.459.826.826,0,0,1,.8.459c.115.115.115.23.115.918s0,.689-.115.918a1.312,1.312,0,0,1-.8.344.826.826,0,0,1-.8-.459c-.115-.115-.115-.23-.115-.918C43.8,4.389,43.8,4.274,43.915,4.159Zm.344,1.607c.115.115.23.23.344.23a.6.6,0,0,0,.459-.23c.115-.115.115-.23.115-.8s0-.574-.115-.8a.5.5,0,0,0-.344-.115c-.23,0-.344.115-.344.23-.115.115-.115.23-.115.8Z" transform="translate(-35.536 -3.585)" fill="#fff"/>
                  <path id="Tracé_13654" data-name="Tracé 13654" d="M48.036,5.666a.873.873,0,0,1-.918.689.826.826,0,0,1-.8-.459c-.115-.115-.115-.23-.115-.918s0-.689.115-.918a.929.929,0,0,1,1.722.344h-.459a.512.512,0,0,0-.459-.344c-.23,0-.344.115-.344.23-.115.115-.115.23-.115.8s0,.574.115.8c.115.115.23.23.344.23.23,0,.344-.115.459-.344h.459Z" transform="translate(-35.181 -3.6)" fill="#fff"/>
                  <path id="Tracé_13655" data-name="Tracé 13655" d="M48.5,3.7h.344V6.34H48.5Z" transform="translate(-34.841 -3.585)" fill="#fff"/>
                </g>
                <g id="Groupe_23392" data-name="Groupe 23392" transform="translate(14.806 0.115)">
                  <path id="Tracé_13656" data-name="Tracé 13656" d="M51.222,5.766H50.189l-.23.574H49.5l.918-2.64h.344L51.8,6.34h-.459Zm-.115-.344-.344-1.148h0l-.344,1.148Z" transform="translate(-49.5 -3.7)" fill="#fff"/>
                </g>
                <g id="Groupe_23393" data-name="Groupe 23393" transform="translate(17.446 0.115)">
                  <path id="Tracé_13657" data-name="Tracé 13657" d="M52.489,4.044H51.8V3.7h1.836v.344h-.689v2.3H52.6v-2.3Z" transform="translate(-51.8 -3.7)" fill="#fff"/>
                  <path id="Tracé_13658" data-name="Tracé 13658" d="M54.1,3.7h.344V6.34H54.1Z" transform="translate(-51.46 -3.7)" fill="#fff"/>
                  <path id="Tracé_13659" data-name="Tracé 13659" d="M55.415,4.159a.966.966,0,0,1,.8-.459.826.826,0,0,1,.8.459c.115.115.115.23.115.918s0,.689-.115.918a1.312,1.312,0,0,1-.8.344.826.826,0,0,1-.8-.459c-.115-.115-.115-.23-.115-.918C55.3,4.389,55.3,4.274,55.415,4.159Zm.344,1.607a.6.6,0,0,0,.459.23c.23,0,.344-.115.344-.23.115-.115.115-.23.115-.8s0-.574-.115-.8a.5.5,0,0,0-.344-.115.6.6,0,0,0-.459.23c-.115.115-.115.23-.115.8A1.666,1.666,0,0,0,55.759,5.766Z" transform="translate(-51.283 -3.7)" fill="#fff"/>
                </g>
                <g id="Groupe_23394" data-name="Groupe 23394" transform="translate(24.333 0.115)">
                  <path id="Tracé_13660" data-name="Tracé 13660" d="M57.8,3.7h.344l1.148,1.951h0V3.7h.344V6.34h-.344L58.144,4.389h0V6.34H57.8Z" transform="translate(-57.8 -3.7)" fill="#fff"/>
                </g>
              </g>
            </g>
            <path id="Tracé_13661" data-name="Tracé 13661" d="M48.045,18.73H36.682V10.007H32.435L29.451,18.73H26.007l-2.3-8.494L21.187,18.73H17.858L14.3,8.515h2.41l2.755,8.034,2.41-8.034h3.558l2.41,8.149L30.6,8.515h8.379v8.608h7.346L50.8,8.4h2.984l5.165,10.215H56.424L55.161,16.2H50.455l.8-1.492h3.1l-2.181-4.132Z" transform="translate(-14.3 0.782)" fill="#fff" fill-rule="evenodd"/>
          </g>
        </g>
      </g>
      <line id="Ligne_5112" data-name="Ligne 5112" y1="34.433" transform="translate(72.425 0)" fill="#fff" stroke="#fff" stroke-width="0.25"/>
      <g id="Groupe_23400" data-name="Groupe 23400" transform="translate(78.164 0.459)">
        <path id="Tracé_13662" data-name="Tracé 13662" d="M71.625,9.687a2.14,2.14,0,0,1-1.836-.8,3.561,3.561,0,0,1-.689-2.64,3.561,3.561,0,0,1,.689-2.64,2.709,2.709,0,0,1,1.836-.8A2.392,2.392,0,0,1,74.15,4.981H72.429a.894.894,0,0,0-.918-.689.97.97,0,0,0-.689.23c-.115.23-.23.459-.23,1.722s.115,1.492.23,1.722a.97.97,0,0,0,.689.23.894.894,0,0,0,.918-.689H74.15A2.481,2.481,0,0,1,71.625,9.687Z" transform="translate(-69.1 -0.39)" fill="#fff"/>
        <path id="Tracé_13663" data-name="Tracé 13663" d="M74.5,9.572V2.8h4.591V4.292H76.107V5.44h2.525V6.932H76.107V8.08h2.984V9.572Z" transform="translate(-68.302 -0.39)" fill="#fff"/>
        <path id="Tracé_13664" data-name="Tracé 13664" d="M83.143,9.572,82,7.047h-.574V9.572H79.7V2.8h2.64a2.14,2.14,0,0,1,2.3,2.181A1.81,1.81,0,0,1,83.488,6.7L84.98,9.572Zm-.8-5.28h-.918V5.669h.918a.662.662,0,0,0,.689-.689A.662.662,0,0,0,82.34,4.292Z" transform="translate(-67.534 -0.39)" fill="#fff"/>
        <path id="Tracé_13665" data-name="Tracé 13665" d="M88.243,4.292v5.28H86.522V4.292H84.8V2.8h5.05V4.292Z" transform="translate(-66.78 -0.39)" fill="#fff"/>
        <path id="Tracé_13666" data-name="Tracé 13666" d="M90.3,9.572V2.8h1.722V9.572Z" transform="translate(-65.967 -0.39)" fill="#fff"/>
        <path id="Tracé_13667" data-name="Tracé 13667" d="M94.722,4.292V5.44h2.525V6.932H94.722v2.64H93V2.8h4.591V4.292Z" transform="translate(-65.568 -0.39)" fill="#fff"/>
        <path id="Tracé_13668" data-name="Tracé 13668" d="M98.2,9.572V2.8h1.722V9.572Z" transform="translate(-64.8 -0.39)" fill="#fff"/>
        <path id="Tracé_13669" data-name="Tracé 13669" d="M101,9.882V3.11h4.591V4.6h-2.984V5.75h2.525V7.242h-2.525V8.39h2.984V9.882Zm2.64-7.461h-.918L103.181.7h1.607Z" transform="translate(-64.386 -0.7)" fill="#fff"/>
        <path id="Tracé_13670" data-name="Tracé 13670" d="M108,7.092V5.6h3.9V7.092H108Z" transform="translate(-63.351 0.024)" fill="#fff"/>
        <path id="Tracé_13671" data-name="Tracé 13671" d="M118.043,9.572l-1.951-3.443V9.572H114.6V2.8h1.263l1.951,3.443V2.8h1.492V9.572h-1.263Z" transform="translate(-62.376 -0.39)" fill="#fff"/>
        <path id="Tracé_13672" data-name="Tracé 13672" d="M120.1,9.572V2.8h1.492V9.572Z" transform="translate(-61.563 -0.39)" fill="#fff"/>
        <path id="Tracé_13673" data-name="Tracé 13673" d="M125.314,9.572h-1.148L122.1,2.8h1.492l1.033,3.788L125.658,2.8h1.607Z" transform="translate(-61.268 -0.39)" fill="#fff"/>
        <path id="Tracé_13674" data-name="Tracé 13674" d="M127.5,9.572V2.8h4.132V4.292h-2.64V5.44h2.3V6.932h-2.3V8.08h2.64V9.572Z" transform="translate(-60.47 -0.39)" fill="#fff"/>
        <path id="Tracé_13675" data-name="Tracé 13675" d="M135.817,9.572l-.23-1.033h-1.836l-.344,1.033H131.8L133.981,2.8h1.148l2.181,6.772Zm-1.148-4.247L134.1,7.162h1.033Z" transform="translate(-59.834 -0.39)" fill="#fff"/>
        <path id="Tracé_13676" data-name="Tracé 13676" d="M139.7,9.687a2.262,2.262,0,0,1-2.3-2.41V2.8h1.492V7.162a.927.927,0,0,0,.8,1.033c.459,0,.8-.344.8-1.033V2.8h1.492V7.162A2.3,2.3,0,0,1,139.7,9.687Z" transform="translate(-59.007 -0.39)" fill="#fff"/>
        <path id="Tracé_13677" data-name="Tracé 13677" d="M148.2,8.654v.918h-1.377V8.654H144.3V7.162L146.366,2.8h1.492l-2.066,4.362h1.033v-.8H148.2v.918h.459V8.768H148.2Z" transform="translate(-57.987 -0.39)" fill="#fff"/>
        <path id="Tracé_13678" data-name="Tracé 13678" d="M73.576,17.55a2.162,2.162,0,0,1-.23.918c-.115.23-.344.459-.459.689a.992.992,0,0,1-.689.344,1.7,1.7,0,0,1-.8.115,2.7,2.7,0,0,1-.918-.23,3.043,3.043,0,0,1-.689-.574,2.509,2.509,0,0,1-.344-.574c-.115-.23-.115-.344-.23-.574,0-.23-.115-.459-.115-.689V15.14a1.456,1.456,0,0,1,.115-.689.877.877,0,0,1,.23-.574c.115-.23.23-.344.344-.574a3.043,3.043,0,0,1,.689-.574,2.162,2.162,0,0,1,.918-.23,1.9,1.9,0,0,1,1.377.574,2.325,2.325,0,0,1,.689,1.607h-.918a1.85,1.85,0,0,0-.459-.8,1.042,1.042,0,0,0-.8-.344c-.23,0-.344,0-.459.115l-.344.344c-.115.115-.115.23-.23.344,0,.115-.115.23-.115.344v2.755c0,.115.115.23.115.344s.115.23.23.344l.344.344a.69.69,0,0,0,.459.115,1.042,1.042,0,0,0,.8-.344,1.85,1.85,0,0,0,.459-.8h1.033Z" transform="translate(-69.1 1.044)" fill="#fff"/>
        <path id="Tracé_13679" data-name="Tracé 13679" d="M77.847,19.572,77.5,18.195h-2.41l-.459,1.377H73.6L75.781,12.8h.689l2.181,6.772Zm-1.607-5.28-.918,2.984h1.836Z" transform="translate(-68.435 1.088)" fill="#fff"/>
        <path id="Tracé_13680" data-name="Tracé 13680" d="M83.562,16.143v1.492a1.631,1.631,0,0,1-.23.689,2.509,2.509,0,0,1-.344.574,2.4,2.4,0,0,1-.689.459,2.238,2.238,0,0,1-.918.115H79.2V12.7h2.181a2.527,2.527,0,0,1,.918.115,2.4,2.4,0,0,1,.689.459c.115.23.344.344.344.574.115.23.115.459.23.689v1.607Zm-.918,0V15a1.659,1.659,0,0,0-.23-.8,1.119,1.119,0,0,0-1.033-.459H80.233v4.935h1.148a1.119,1.119,0,0,0,1.033-.459,1.659,1.659,0,0,0,.23-.8Z" transform="translate(-67.607 1.073)" fill="#fff"/>
        <path id="Tracé_13681" data-name="Tracé 13681" d="M87.829,19.572,86.566,16.7H85.418v2.869H84.5V12.8h2.41a1.7,1.7,0,0,1,.8.115,1.146,1.146,0,0,1,.574.459c.115.23.344.344.344.574a1.7,1.7,0,0,1,.115.8A1.714,1.714,0,0,1,88.4,15.9a1.577,1.577,0,0,1-.918.574l1.377,2.984H87.829Zm0-4.821a1.659,1.659,0,0,0-.23-.8.968.968,0,0,0-.8-.23H85.418v2.066H86.8a1.659,1.659,0,0,0,.8-.23A1.659,1.659,0,0,0,87.829,14.751Z" transform="translate(-66.824 1.088)" fill="#fff"/>
        <path id="Tracé_13682" data-name="Tracé 13682" d="M89.7,19.572V12.8h3.9v.918H90.618v1.951h2.525v.918H90.618v2.066H93.6v.918H89.7Z" transform="translate(-66.056 1.088)" fill="#fff"/>
        <path id="Tracé_13683" data-name="Tracé 13683" d="M100.862,16.143v1.492a1.631,1.631,0,0,1-.23.689,2.509,2.509,0,0,1-.344.574,2.4,2.4,0,0,1-.689.459,2.238,2.238,0,0,1-.918.115H96.5V12.7h2.181a2.527,2.527,0,0,1,.918.115,2.4,2.4,0,0,1,.689.459c.115.23.344.344.344.574.115.23.115.459.23.689v1.607Zm-.918,0V15a1.659,1.659,0,0,0-.23-.8,1.119,1.119,0,0,0-1.033-.459H97.533v4.935h1.148a1.119,1.119,0,0,0,1.033-.459,1.659,1.659,0,0,0,.23-.8Z" transform="translate(-65.051 1.073)" fill="#fff"/>
        <path id="Tracé_13684" data-name="Tracé 13684" d="M106.162,17.276a2.238,2.238,0,0,1-.115.918,1.054,1.054,0,0,1-.459.689,2.4,2.4,0,0,1-.689.459,2.238,2.238,0,0,1-.918.115,2.527,2.527,0,0,1-.918-.115,2.11,2.11,0,0,1-1.148-1.148,2.527,2.527,0,0,1-.115-.918V12.8h.918v4.476a1.4,1.4,0,0,0,.344,1.033,1.4,1.4,0,0,0,1.836,0,1.4,1.4,0,0,0,.344-1.033V12.8h.918v4.476Z" transform="translate(-64.268 1.088)" fill="#fff"/>
        <path id="Tracé_13685" data-name="Tracé 13685" d="M111.858,17.391a2.238,2.238,0,0,1-.115.918,2.4,2.4,0,0,1-.459.689,1.463,1.463,0,0,1-.689.459,2.869,2.869,0,0,1-1.607,0A2.4,2.4,0,0,1,108.3,19l.574-.689.344.344a.86.86,0,0,0,.574.115,1.042,1.042,0,0,0,.8-.344,1.4,1.4,0,0,0,.344-1.033V12.8h.918v4.591Z" transform="translate(-63.307 1.088)" fill="#fff"/>
        <path id="Tracé_13686" data-name="Tracé 13686" d="M113,19.572V12.8h3.9v.918h-2.984v1.951h2.525v.918h-2.525v2.066H116.9v.918H113Z" transform="translate(-62.612 1.088)" fill="#fff"/>
        <path id="Tracé_13687" data-name="Tracé 13687" d="M122.162,17.276a2.238,2.238,0,0,1-.115.918,1.054,1.054,0,0,1-.459.689,2.4,2.4,0,0,1-.689.459,2.238,2.238,0,0,1-.918.115,2.527,2.527,0,0,1-.918-.115,2.11,2.11,0,0,1-1.148-1.148,2.527,2.527,0,0,1-.115-.918V12.8h.918v4.476a1.4,1.4,0,0,0,.344,1.033,1.4,1.4,0,0,0,1.836,0,1.4,1.4,0,0,0,.344-1.033V12.8h.918v4.476Z" transform="translate(-61.903 1.088)" fill="#fff"/>
        <path id="Tracé_13688" data-name="Tracé 13688" d="M128.629,19.572,127.366,16.7h-1.148v2.869H125.3V12.8h2.41a1.7,1.7,0,0,1,.8.115,1.146,1.146,0,0,1,.574.459c.115.23.344.344.344.574a1.7,1.7,0,0,1,.115.8A1.714,1.714,0,0,1,129.2,15.9a1.577,1.577,0,0,1-.918.574l1.377,2.984h-1.033Zm-.115-4.821a1.659,1.659,0,0,0-.23-.8.968.968,0,0,0-.8-.23H126.1v2.066h1.377a1.659,1.659,0,0,0,.8-.23A.968.968,0,0,0,128.514,14.751Z" transform="translate(-60.795 1.088)" fill="#fff"/>
        <path id="Tracé_13689" data-name="Tracé 13689" d="M130.4,19.572V12.8h3.9v.918h-2.984v1.951h2.525v.918h-2.525v2.066H134.3v.918h-3.9Z" transform="translate(-60.041 1.088)" fill="#fff"/>
        <path id="Tracé_13690" data-name="Tracé 13690" d="M139.062,17.68a1.7,1.7,0,0,1-.115.8,1.146,1.146,0,0,1-.459.574c-.23.115-.459.344-.689.344a2.238,2.238,0,0,1-.918.115,4.126,4.126,0,0,1-1.263-.23,1.785,1.785,0,0,1-.918-.689l.574-.689c.23.23.459.459.689.459a1.953,1.953,0,0,0,.8.115,2.162,2.162,0,0,0,.918-.23,1.042,1.042,0,0,0,.344-.8.97.97,0,0,0-.23-.689l-.23-.23c-.115,0-.23-.115-.459-.115l-.689-.115a1.834,1.834,0,0,1-1.148-.574,1.568,1.568,0,0,1-.459-1.263,1.7,1.7,0,0,1,.115-.8,2.4,2.4,0,0,1,.459-.689,1.463,1.463,0,0,1,.689-.459,1.953,1.953,0,0,1,.8-.115,2.292,2.292,0,0,1,1.033.23,2.059,2.059,0,0,1,.8.574l-.574.689a2.015,2.015,0,0,0-.574-.459,1.456,1.456,0,0,0-.689-.115.894.894,0,0,0-.8.344.968.968,0,0,0-.23.8v.344a.247.247,0,0,0,.23.23,1.869,1.869,0,0,0,.689.344l.689.115a1.631,1.631,0,0,1,.689.23c.115.115.344.23.459.344a.976.976,0,0,1,.344.574A3.541,3.541,0,0,1,139.062,17.68Z" transform="translate(-59.406 1.029)" fill="#fff"/>
        <path id="Tracé_13691" data-name="Tracé 13691" d="M144.132,14.766a1.7,1.7,0,0,1-.115.8l-.344.689a1.146,1.146,0,0,1-.574.459,1.7,1.7,0,0,1-.8.115h-1.377v2.64H140V12.7h2.3a1.7,1.7,0,0,1,.8.115,1.146,1.146,0,0,1,.574.459c.115.23.344.344.344.689A2.241,2.241,0,0,1,144.132,14.766Zm-.918,0a.894.894,0,0,0-.344-.8,1.042,1.042,0,0,0-.8-.344h-1.377v2.3h1.377a1.042,1.042,0,0,0,.8-.344C143.1,15.455,143.214,15.225,143.214,14.766Z" transform="translate(-58.622 1.073)" fill="#fff"/>
        <path id="Tracé_13692" data-name="Tracé 13692" d="M149.076,16.158v.918a1.456,1.456,0,0,1-.115.689,4.971,4.971,0,0,1-.115.574c-.115.23-.23.344-.344.574a3.043,3.043,0,0,1-.689.574,2.162,2.162,0,0,1-.918.23,2.7,2.7,0,0,1-.918-.23,3.043,3.043,0,0,1-.689-.574,2.509,2.509,0,0,1-.344-.574c-.115-.23-.115-.344-.23-.574,0-.23-.115-.459-.115-.689V15.24a1.456,1.456,0,0,1,.115-.689.877.877,0,0,1,.23-.574c.115-.23.23-.344.344-.574a3.042,3.042,0,0,1,.689-.574,2.162,2.162,0,0,1,.918-.23,2.7,2.7,0,0,1,.918.23,3.044,3.044,0,0,1,.689.574,2.509,2.509,0,0,1,.344.574,1.035,1.035,0,0,1,.115.574,1.456,1.456,0,0,0,.115.689Zm-.918,0V14.781c0-.115-.115-.23-.115-.344s-.115-.23-.23-.344l-.344-.344a.976.976,0,0,0-.918,0c-.115.115-.344.23-.344.344-.115.115-.115.23-.23.344,0,.115-.115.23-.115.344v2.755c0,.115.115.23.115.344s.115.23.23.344l.344.344a.976.976,0,0,0,.918,0c.115-.115.344-.23.344-.344.115-.115.115-.23.23-.344,0-.115.115-.23.115-.344V16.158Z" transform="translate(-57.943 1.059)" fill="#fff"/>
        <path id="Tracé_13693" data-name="Tracé 13693" d="M153.788,19.572l-2.869-4.821v4.821H150V12.8h.8l2.869,4.706V12.8h.918v6.772Z" transform="translate(-57.145 1.088)" fill="#fff"/>
        <path id="Tracé_13694" data-name="Tracé 13694" d="M159.562,17.68a1.7,1.7,0,0,1-.115.8,1.146,1.146,0,0,1-.459.574c-.23.115-.459.344-.689.344a2.238,2.238,0,0,1-.918.115,4.126,4.126,0,0,1-1.263-.23,1.785,1.785,0,0,1-.918-.689l.574-.689c.23.23.459.459.689.459a1.953,1.953,0,0,0,.8.115,2.162,2.162,0,0,0,.918-.23,1.042,1.042,0,0,0,.344-.8.97.97,0,0,0-.23-.689l-.23-.23c-.115,0-.23-.115-.459-.115l-.689-.115a1.834,1.834,0,0,1-1.148-.574,1.568,1.568,0,0,1-.459-1.263,1.7,1.7,0,0,1,.115-.8,2.4,2.4,0,0,1,.459-.689,1.463,1.463,0,0,1,.689-.459,1.953,1.953,0,0,1,.8-.115,2.292,2.292,0,0,1,1.033.23,2.059,2.059,0,0,1,.8.574l-.574.689a2.015,2.015,0,0,0-.574-.459,1.456,1.456,0,0,0-.689-.115.894.894,0,0,0-.8.344.968.968,0,0,0-.23.8v.344a.247.247,0,0,0,.23.23,1.869,1.869,0,0,0,.689.344l.689.115a1.631,1.631,0,0,1,.689.23c.115.115.344.23.459.344a.976.976,0,0,1,.344.574A3.541,3.541,0,0,1,159.562,17.68Z" transform="translate(-56.376 1.029)" fill="#fff"/>
        <path id="Tracé_13695" data-name="Tracé 13695" d="M164.062,19.572l-.459-1.377h-2.41l-.459,1.377H159.7l2.181-6.772h.689l2.181,6.772Zm-1.607-5.28-.918,2.984h1.836Z" transform="translate(-55.711 1.088)" fill="#fff"/>
        <path id="Tracé_13696" data-name="Tracé 13696" d="M169.632,17.635a1.7,1.7,0,0,1-.115.8,2.509,2.509,0,0,1-.344.574,2.509,2.509,0,0,1-.574.344,1.456,1.456,0,0,1-.689.115H165.5V12.7h2.41a1.623,1.623,0,0,1,1.836,1.836c0,.23,0,.344-.115.459a.87.87,0,0,1-.23.459c-.115.115-.115.23-.23.344s-.23.115-.344.23c.115,0,.23.115.344.23l.344.344c.115.115.115.23.23.459A.86.86,0,0,0,169.632,17.635ZM168.6,14.651a.97.97,0,0,0-.23-.689,1.631,1.631,0,0,0-.689-.23H166.3v1.951h1.377a.837.837,0,0,0,.918-1.033Zm.115,2.869a.97.97,0,0,0-.23-.689c-.115-.23-.459-.23-.689-.23H166.3v2.066H167.8a.694.694,0,0,0,.689-.344A1.659,1.659,0,0,0,168.714,17.521Z" transform="translate(-54.854 1.073)" fill="#fff"/>
        <path id="Tracé_13697" data-name="Tracé 13697" d="M170.6,19.572V12.8h.918v5.854H174.5v.918Z" transform="translate(-54.1 1.088)" fill="#fff"/>
        <path id="Tracé_13698" data-name="Tracé 13698" d="M175.2,19.572V12.8h3.9v.918h-2.984v1.951h2.525v.918h-2.525v2.066H179.1v.918h-3.9Z" transform="translate(-53.421 1.088)" fill="#fff"/>
        <path id="Tracé_13699" data-name="Tracé 13699" d="M69.215,29.472v-.918l2.3-3.214a.87.87,0,0,0,.23-.459c0-.115.115-.344.115-.459a.97.97,0,0,0-.23-.689c-.115-.23-.344-.23-.689-.23h-.344a.247.247,0,0,0-.23.23c-.115.115-.115.23-.23.344,0,.115-.115.344-.115.459H69.1a1.953,1.953,0,0,1,.115-.8,2.509,2.509,0,0,1,.344-.574.976.976,0,0,1,.574-.344,2.123,2.123,0,0,1,1.377,0,2.509,2.509,0,0,1,.574.344,2.509,2.509,0,0,1,.344.574,1.7,1.7,0,0,1,.115.8,1.7,1.7,0,0,1-.115.8,2.4,2.4,0,0,1-.459.689l-1.951,2.64h2.525v.918H69.215Z" transform="translate(-69.1 2.551)" fill="#fff"/>
        <path id="Tracé_13700" data-name="Tracé 13700" d="M76.943,27.621a1.7,1.7,0,0,1-.115.8,2.509,2.509,0,0,1-.344.574.976.976,0,0,1-.574.344,2.123,2.123,0,0,1-1.377,0c-.23-.115-.344-.23-.574-.344a2.509,2.509,0,0,1-.344-.574,1.7,1.7,0,0,1-.115-.8V24.636a1.7,1.7,0,0,1,.115-.8,2.508,2.508,0,0,1,.344-.574.976.976,0,0,1,.574-.344,2.123,2.123,0,0,1,1.377,0c.23.115.344.23.574.344a2.509,2.509,0,0,1,.344.574,1.7,1.7,0,0,1,.115.8Zm-.918-2.984a1.659,1.659,0,0,0-.23-.8.694.694,0,0,0-.689-.344.992.992,0,0,0-.689.344,1.659,1.659,0,0,0-.23.8v2.984a1.659,1.659,0,0,0,.23.8.694.694,0,0,0,.689.344.992.992,0,0,0,.689-.344,1.659,1.659,0,0,0,.23-.8Z" transform="translate(-68.45 2.566)" fill="#fff"/>
        <path id="Tracé_13701" data-name="Tracé 13701" d="M79.248,29.472V23.733L78.1,24.881V23.848L79.248,22.7h.918v6.772Z" transform="translate(-67.77 2.551)" fill="#fff"/>
        <path id="Tracé_13702" data-name="Tracé 13702" d="M85.543,24.651a1.953,1.953,0,0,1-.115.8c-.115.23-.23.574-.344.8l-1.377,3.1h-.918l1.263-2.869c-.115,0-.115.115-.23.115h-.23a.86.86,0,0,1-.574-.115,1.585,1.585,0,0,1-.459-.344,2.509,2.509,0,0,1-.344-.574,1.7,1.7,0,0,1-.115-.8,1.7,1.7,0,0,1,.115-.8l.344-.689a1.146,1.146,0,0,1,.574-.459,2.123,2.123,0,0,1,1.377,0,1.146,1.146,0,0,1,.574.459,3.821,3.821,0,0,1,.344.689A4.059,4.059,0,0,1,85.543,24.651Zm-.918,0a1.338,1.338,0,0,0-.23-.8.818.818,0,0,0-.689-.344.992.992,0,0,0-.689.344,1.521,1.521,0,0,0,0,1.607.694.694,0,0,0,.689.344.992.992,0,0,0,.689-.344A1.1,1.1,0,0,0,84.625,24.651Z" transform="translate(-67.179 2.551)" fill="#fff"/>
        <path id="Tracé_13703" data-name="Tracé 13703" d="M88.2,26.818V25.9h3.673v.918Z" transform="translate(-66.277 3.024)" fill="#fff"/>
        <path id="Tracé_13704" data-name="Tracé 13704" d="M94.715,29.472v-.918l2.3-3.214a.87.87,0,0,0,.23-.459c0-.115.115-.344.115-.459a.97.97,0,0,0-.23-.689c-.115-.23-.344-.23-.689-.23h-.344a.247.247,0,0,0-.23.23c-.115.115-.115.23-.23.344,0,.115-.115.344-.115.459H94.6a1.953,1.953,0,0,1,.115-.8,2.508,2.508,0,0,1,.344-.574.976.976,0,0,1,.574-.344,2.123,2.123,0,0,1,1.377,0,2.509,2.509,0,0,1,.574.344,2.509,2.509,0,0,1,.344.574,1.7,1.7,0,0,1,.115.8,1.7,1.7,0,0,1-.115.8,2.4,2.4,0,0,1-.459.689l-1.951,2.64h2.525v.918H94.715Z" transform="translate(-65.332 2.551)" fill="#fff"/>
        <path id="Tracé_13705" data-name="Tracé 13705" d="M102.443,27.621a1.7,1.7,0,0,1-.115.8,2.508,2.508,0,0,1-.344.574.976.976,0,0,1-.574.344,2.123,2.123,0,0,1-1.377,0c-.23-.115-.344-.23-.574-.344a2.509,2.509,0,0,1-.344-.574,1.953,1.953,0,0,1-.115-.8V24.636a1.7,1.7,0,0,1,.115-.8,2.509,2.509,0,0,1,.344-.574.976.976,0,0,1,.574-.344,2.123,2.123,0,0,1,1.377,0c.23.115.344.23.574.344a2.509,2.509,0,0,1,.344.574,1.7,1.7,0,0,1,.115.8Zm-.8-2.984a1.659,1.659,0,0,0-.23-.8.694.694,0,0,0-.689-.344.992.992,0,0,0-.689.344,1.659,1.659,0,0,0-.23.8v2.984a1.659,1.659,0,0,0,.23.8.694.694,0,0,0,.689.344.992.992,0,0,0,.689-.344,1.659,1.659,0,0,0,.23-.8Z" transform="translate(-64.681 2.566)" fill="#fff"/>
        <path id="Tracé_13706" data-name="Tracé 13706" d="M103.215,29.472v-.918l2.3-3.214a.87.87,0,0,0,.23-.459c0-.115.115-.344.115-.459a.97.97,0,0,0-.23-.689c-.115-.23-.344-.23-.689-.23h-.344a.247.247,0,0,0-.23.23c-.115.115-.115.23-.23.344,0,.115-.115.344-.115.459H103.1a1.953,1.953,0,0,1,.115-.8,2.509,2.509,0,0,1,.344-.574.976.976,0,0,1,.574-.344,2.123,2.123,0,0,1,1.377,0,2.509,2.509,0,0,1,.574.344,2.51,2.51,0,0,1,.344.574,1.7,1.7,0,0,1,.115.8,1.7,1.7,0,0,1-.115.8,2.4,2.4,0,0,1-.459.689l-1.951,2.64h2.525v.918h-3.329Z" transform="translate(-64.075 2.551)" fill="#fff"/>
        <path id="Tracé_13707" data-name="Tracé 13707" d="M107.515,29.472v-.918l2.3-3.214a.87.87,0,0,0,.23-.459c0-.115.115-.344.115-.459a.97.97,0,0,0-.23-.689c-.115-.23-.344-.23-.689-.23h-.344a.247.247,0,0,0-.23.23c-.115.115-.115.23-.23.344,0,.115-.115.344-.115.459H107.4a1.953,1.953,0,0,1,.115-.8,2.509,2.509,0,0,1,.344-.574.976.976,0,0,1,.574-.344,2.123,2.123,0,0,1,1.377,0,2.509,2.509,0,0,1,.574.344,2.509,2.509,0,0,1,.344.574,1.7,1.7,0,0,1,.115.8,1.7,1.7,0,0,1-.115.8,2.4,2.4,0,0,1-.459.689l-1.951,2.64h2.525v.918h-3.329Z" transform="translate(-63.44 2.551)" fill="#fff"/>
      </g>
      <line id="Ligne_5113" data-name="Ligne 5113" y1="34.433" transform="translate(209.24 0)" fill="#fff" stroke="#fff" stroke-width="0.25"/>
      <g id="Groupe_23401" data-name="Groupe 23401" transform="translate(214.635 0.459)">
        <path id="Tracé_13708" data-name="Tracé 13708" d="M190.825,9.687a2.14,2.14,0,0,1-1.836-.8,3.561,3.561,0,0,1-.689-2.64,3.561,3.561,0,0,1,.689-2.64,2.709,2.709,0,0,1,1.836-.8,2.392,2.392,0,0,1,2.525,2.181h-1.722a.894.894,0,0,0-.918-.689.97.97,0,0,0-.689.23c-.115.23-.23.459-.23,1.722s.115,1.492.23,1.722a.97.97,0,0,0,.689.23.894.894,0,0,0,.918-.689h1.722A2.481,2.481,0,0,1,190.825,9.687Z" transform="translate(-187.956 -0.39)" fill="#fff"/>
        <path id="Tracé_13709" data-name="Tracé 13709" d="M193.7,9.572V2.8h4.591V4.292h-2.984V5.44h2.525V6.932h-2.525V8.08h2.984V9.572Z" transform="translate(-187.158 -0.39)" fill="#fff"/>
        <path id="Tracé_13710" data-name="Tracé 13710" d="M202.243,9.572,201.1,7.047h-.574V9.572H198.8V2.8h2.64a2.14,2.14,0,0,1,2.3,2.181A1.81,1.81,0,0,1,202.588,6.7l1.492,2.869Zm-.8-5.28h-.918V5.669h.918a.662.662,0,0,0,.689-.689C202.243,4.636,201.9,4.292,201.44,4.292Z" transform="translate(-186.404 -0.39)" fill="#fff"/>
        <path id="Tracé_13711" data-name="Tracé 13711" d="M207.443,4.292v5.28h-1.722V4.292H204V2.8h5.05V4.292Z" transform="translate(-185.636 -0.39)" fill="#fff"/>
        <path id="Tracé_13712" data-name="Tracé 13712" d="M209.4,9.572V2.8h1.722V9.572Z" transform="translate(-184.838 -0.39)" fill="#fff"/>
        <path id="Tracé_13713" data-name="Tracé 13713" d="M213.922,4.292V5.44h2.525V6.932h-2.525v2.64H212.2V2.8h4.591V4.292Z" transform="translate(-184.424 -0.39)" fill="#fff"/>
        <path id="Tracé_13714" data-name="Tracé 13714" d="M217.4,9.572V2.8h1.722V9.572Z" transform="translate(-183.655 -0.39)" fill="#fff"/>
        <path id="Tracé_13715" data-name="Tracé 13715" d="M220.2,9.882V3.11h4.591V4.6h-2.984V5.75h2.525V7.242h-2.525V8.39h2.984V9.882Zm2.64-7.461h-.918L222.381.7h1.607Z" transform="translate(-183.241 -0.7)" fill="#fff"/>
        <path id="Tracé_13716" data-name="Tracé 13716" d="M192.288,19.572l-2.869-4.821v4.821H188.5V12.8h.8l2.869,4.706V12.8h.918v6.772Z" transform="translate(-187.926 1.088)" fill="#fff"/>
        <path id="Tracé_13717" data-name="Tracé 13717" d="M198.376,16.158v.918a1.456,1.456,0,0,1-.115.689,4.971,4.971,0,0,1-.115.574c-.115.23-.23.344-.344.574a3.043,3.043,0,0,1-.689.574,2.162,2.162,0,0,1-.918.23,2.7,2.7,0,0,1-.918-.23,3.043,3.043,0,0,1-.689-.574,2.509,2.509,0,0,1-.344-.574c-.115-.23-.115-.344-.23-.574,0-.23-.115-.459-.115-.689V15.24a1.456,1.456,0,0,1,.115-.689.877.877,0,0,1,.23-.574c.115-.23.23-.344.344-.574a3.043,3.043,0,0,1,.689-.574,2.162,2.162,0,0,1,.918-.23,2.7,2.7,0,0,1,.918.23,3.044,3.044,0,0,1,.689.574,2.509,2.509,0,0,1,.344.574,1.035,1.035,0,0,1,.115.574,1.456,1.456,0,0,0,.115.689Zm-.918,0V14.781c0-.115-.115-.23-.115-.344s-.115-.23-.23-.344l-.344-.344a.69.69,0,0,0-.459-.115c-.23,0-.344,0-.459.115s-.344.23-.344.344c-.115.115-.115.23-.23.344,0,.115-.115.23-.115.344v2.755c0,.115.115.23.115.344s.115.23.23.344l.344.344a.69.69,0,0,0,.459.115c.23,0,.344,0,.459-.115s.344-.23.344-.344c.115-.115.115-.23.23-.344,0-.115.115-.23.115-.344V16.158Z" transform="translate(-187.128 1.059)" fill="#fff"/>
        <path id="Tracé_13718" data-name="Tracé 13718" d="M202.729,19.572,201.466,16.7h-1.148v2.869H199.4V12.8h2.41a1.7,1.7,0,0,1,.8.115,1.146,1.146,0,0,1,.574.459c.115.23.344.344.344.574a1.7,1.7,0,0,1,.115.8A1.714,1.714,0,0,1,203.3,15.9a1.577,1.577,0,0,1-.918.574l1.377,2.984h-1.033Zm-.115-4.821a1.659,1.659,0,0,0-.23-.8.968.968,0,0,0-.8-.23H200.2v2.066h1.377a1.659,1.659,0,0,0,.8-.23A.968.968,0,0,0,202.614,14.751Z" transform="translate(-186.315 1.088)" fill="#fff"/>
        <path id="Tracé_13719" data-name="Tracé 13719" d="M208.976,19.572V15.1L207.6,18.424h-.689L205.418,15.1v4.476H204.5V12.8h.918l1.836,4.247,1.722-4.247h.918v6.772h-.918Z" transform="translate(-185.562 1.088)" fill="#fff"/>
        <path id="Tracé_13720" data-name="Tracé 13720" d="M210.9,19.572V12.8h3.9v.918h-2.984v1.951h2.525v.918h-2.525v2.066H214.8v.918h-3.9Z" transform="translate(-184.616 1.088)" fill="#fff"/>
        <path id="Tracé_13721" data-name="Tracé 13721" d="M222.062,16.143v1.492a1.631,1.631,0,0,1-.23.689,2.509,2.509,0,0,1-.344.574,2.4,2.4,0,0,1-.689.459,2.238,2.238,0,0,1-.918.115H217.7V12.7h2.181a2.527,2.527,0,0,1,.918.115,2.4,2.4,0,0,1,.689.459c.115.23.344.344.344.574.115.23.115.459.23.689v1.607Zm-.918,0V15a1.659,1.659,0,0,0-.23-.8,1.119,1.119,0,0,0-1.033-.459h-1.148v4.935h1.148a1.119,1.119,0,0,0,1.033-.459,1.659,1.659,0,0,0,.23-.8Z" transform="translate(-183.611 1.073)" fill="#fff"/>
        <path id="Tracé_13722" data-name="Tracé 13722" d="M223,19.572V12.8h3.9v.918h-2.984v1.951h2.525v.918h-2.525v2.066H226.9v.918H223Z" transform="translate(-182.828 1.088)" fill="#fff"/>
        <path id="Tracé_13723" data-name="Tracé 13723" d="M234.076,17.55a2.162,2.162,0,0,1-.23.918c-.115.23-.344.459-.459.689a.992.992,0,0,1-.689.344,1.7,1.7,0,0,1-.8.115,2.7,2.7,0,0,1-.918-.23,3.043,3.043,0,0,1-.689-.574,2.509,2.509,0,0,1-.344-.574c-.115-.23-.115-.344-.23-.574,0-.23-.115-.459-.115-.689V15.14a1.456,1.456,0,0,1,.115-.689.877.877,0,0,1,.23-.574c.115-.23.23-.344.344-.574a3.043,3.043,0,0,1,.689-.574,2.162,2.162,0,0,1,.918-.23,1.9,1.9,0,0,1,1.377.574,2.326,2.326,0,0,1,.689,1.607h-.918a1.85,1.85,0,0,0-.459-.8,1.042,1.042,0,0,0-.8-.344c-.23,0-.344,0-.459.115l-.344.344c-.115.115-.115.23-.23.344,0,.115-.115.23-.115.344v2.755c0,.115.115.23.115.344s.115.23.23.344l.344.344a.69.69,0,0,0,.459.115,1.042,1.042,0,0,0,.8-.344,1.85,1.85,0,0,0,.459-.8h1.033Z" transform="translate(-181.852 1.044)" fill="#fff"/>
        <path id="Tracé_13724" data-name="Tracé 13724" d="M239.076,16.158v.918a1.456,1.456,0,0,1-.115.689,4.971,4.971,0,0,1-.115.574c-.115.23-.23.344-.344.574a3.042,3.042,0,0,1-.689.574,2.162,2.162,0,0,1-.918.23,2.7,2.7,0,0,1-.918-.23,3.043,3.043,0,0,1-.689-.574,2.509,2.509,0,0,1-.344-.574c-.115-.23-.115-.344-.23-.574,0-.23-.115-.459-.115-.689V15.24a1.456,1.456,0,0,1,.115-.689.877.877,0,0,1,.23-.574c.115-.23.23-.344.344-.574a3.043,3.043,0,0,1,.689-.574,2.162,2.162,0,0,1,.918-.23,2.7,2.7,0,0,1,.918.23,3.044,3.044,0,0,1,.689.574,2.509,2.509,0,0,1,.344.574,1.035,1.035,0,0,1,.115.574,1.456,1.456,0,0,0,.115.689Zm-.918,0V14.781c0-.115-.115-.23-.115-.344s-.115-.23-.23-.344l-.344-.344a.69.69,0,0,0-.459-.115c-.23,0-.344,0-.459.115s-.344.23-.344.344c-.115.115-.115.23-.23.344,0,.115-.115.23-.115.344v2.755c0,.115.115.23.115.344s.115.23.23.344l.344.344a.69.69,0,0,0,.459.115c.23,0,.344,0,.459-.115s.344-.23.344-.344c.115-.115.115-.23.23-.344,0-.115.115-.23.115-.344V16.158Z" transform="translate(-181.113 1.059)" fill="#fff"/>
        <path id="Tracé_13725" data-name="Tracé 13725" d="M243.788,19.572l-2.869-4.821v4.821H240V12.8h.8l2.869,4.706V12.8h.918v6.772Z" transform="translate(-180.315 1.088)" fill="#fff"/>
        <path id="Tracé_13726" data-name="Tracé 13726" d="M247.84,13.718v5.854h-.918V13.718H245.2V12.8h4.247v.918Z" transform="translate(-179.547 1.088)" fill="#fff"/>
        <path id="Tracé_13727" data-name="Tracé 13727" d="M253.529,19.572,252.266,16.7h-1.148v2.869H250.2V12.8h2.41a1.7,1.7,0,0,1,.8.115,1.146,1.146,0,0,1,.574.459c.115.23.344.344.344.574a1.7,1.7,0,0,1,.115.8A1.714,1.714,0,0,1,254.1,15.9a1.577,1.577,0,0,1-.918.574l1.377,2.984h-1.033Zm0-4.821a1.659,1.659,0,0,0-.23-.8.968.968,0,0,0-.8-.23h-1.377v2.066H252.5a1.659,1.659,0,0,0,.8-.23A1.659,1.659,0,0,0,253.529,14.751Z" transform="translate(-178.808 1.088)" fill="#fff"/>
        <path id="Tracé_13728" data-name="Tracé 13728" d="M259.576,16.409v.918a1.456,1.456,0,0,1-.115.689,4.971,4.971,0,0,1-.115.574c-.115.23-.23.344-.344.574a3.043,3.043,0,0,1-.689.574,2.162,2.162,0,0,1-.918.23,2.7,2.7,0,0,1-.918-.23,3.043,3.043,0,0,1-.689-.574,2.509,2.509,0,0,1-.344-.574c-.115-.23-.115-.344-.23-.574,0-.23-.115-.459-.115-.689V15.491a1.456,1.456,0,0,1,.115-.689.877.877,0,0,1,.23-.574c.115-.23.23-.344.344-.574a3.043,3.043,0,0,1,.689-.574,2.162,2.162,0,0,1,.918-.23,2.7,2.7,0,0,1,.918.23,3.043,3.043,0,0,1,.689.574,2.508,2.508,0,0,1,.344.574,1.035,1.035,0,0,1,.115.574,1.456,1.456,0,0,0,.115.689Zm-1.492-4.017-.689-.918-.689.918h-.689l1.148-1.492h.689L259,12.392Zm.574,4.017V15.032c0-.115-.115-.23-.115-.344s-.115-.23-.23-.344L257.969,14a.976.976,0,0,0-.918,0c-.115.115-.344.23-.344.344-.115.115-.115.23-.23.344,0,.115-.115.23-.115.344v2.755c0,.115.115.23.115.344s.115.23.23.344l.344.344a.976.976,0,0,0,.918,0c.115-.115.344-.23.344-.344.115-.115.115-.23.23-.344,0-.115.115-.23.115-.344V16.409Z" transform="translate(-178.084 0.807)" fill="#fff"/>
        <path id="Tracé_13729" data-name="Tracé 13729" d="M260.5,19.572V12.8h.918v5.854H264.4v.918Z" transform="translate(-177.286 1.088)" fill="#fff"/>
        <path id="Tracé_13730" data-name="Tracé 13730" d="M265,19.572V12.8h3.9v.918h-2.984v1.951h2.525v.918h-2.525v2.066H268.9v.918H265Z" transform="translate(-176.621 1.088)" fill="#fff"/>
        <path id="Tracé_13731" data-name="Tracé 13731" d="M276.262,16.143v1.492a1.631,1.631,0,0,1-.23.689,2.511,2.511,0,0,1-.344.574,2.4,2.4,0,0,1-.689.459,2.238,2.238,0,0,1-.918.115H271.9V12.7h2.181a2.527,2.527,0,0,1,.918.115,2.4,2.4,0,0,1,.689.459c.115.23.344.344.344.574.115.23.115.459.23.689v1.607Zm-.918,0V15a1.659,1.659,0,0,0-.23-.8,1.119,1.119,0,0,0-1.033-.459h-1.148v4.935h1.148a1.119,1.119,0,0,0,1.033-.459,1.659,1.659,0,0,0,.23-.8Z" transform="translate(-175.601 1.073)" fill="#fff"/>
        <path id="Tracé_13732" data-name="Tracé 13732" d="M277.2,19.572V12.8h3.9v.918h-2.984v1.951h2.525v.918h-2.525v2.066H281.1v.918h-3.9Z" transform="translate(-174.818 1.088)" fill="#fff"/>
        <path id="Tracé_13733" data-name="Tracé 13733" d="M287.962,17.68a1.7,1.7,0,0,1-.115.8,1.146,1.146,0,0,1-.459.574c-.23.115-.459.344-.689.344a2.237,2.237,0,0,1-.918.115,4.126,4.126,0,0,1-1.263-.23,1.785,1.785,0,0,1-.918-.689l.574-.689c.23.23.459.459.689.459a1.953,1.953,0,0,0,.8.115,2.162,2.162,0,0,0,.918-.23,1.042,1.042,0,0,0,.344-.8.97.97,0,0,0-.23-.689l-.23-.23c-.115,0-.23-.115-.459-.115l-.689-.115a1.834,1.834,0,0,1-1.148-.574,1.568,1.568,0,0,1-.459-1.263,1.7,1.7,0,0,1,.115-.8,2.4,2.4,0,0,1,.459-.689,1.463,1.463,0,0,1,.689-.459,1.954,1.954,0,0,1,.8-.115,2.292,2.292,0,0,1,1.033.23,2.06,2.06,0,0,1,.8.574l-.574.689a2.014,2.014,0,0,0-.574-.459,1.456,1.456,0,0,0-.689-.115.894.894,0,0,0-.8.344.968.968,0,0,0-.23.8v.344a.247.247,0,0,0,.23.23,1.869,1.869,0,0,0,.689.344l.689.115a1.631,1.631,0,0,1,.689.23c.115.115.344.23.459.344a.976.976,0,0,1,.344.574A3.54,3.54,0,0,1,287.962,17.68Z" transform="translate(-173.872 1.029)" fill="#fff"/>
        <path id="Tracé_13734" data-name="Tracé 13734" d="M288.8,19.853V13.081h3.9V14h-2.984V15.95h2.525v.918h-2.525v2.066H292.7v.918h-3.9Zm2.066-7.461h-.689l.689-1.492h.918Z" transform="translate(-173.104 0.807)" fill="#fff"/>
        <path id="Tracé_13735" data-name="Tracé 13735" d="M297.776,17.55a2.162,2.162,0,0,1-.23.918c-.115.23-.344.459-.459.689a.992.992,0,0,1-.689.344,1.7,1.7,0,0,1-.8.115,2.7,2.7,0,0,1-.918-.23,3.043,3.043,0,0,1-.689-.574,2.508,2.508,0,0,1-.344-.574c-.115-.23-.115-.344-.23-.574,0-.23-.115-.459-.115-.689V15.14a1.456,1.456,0,0,1,.115-.689.877.877,0,0,1,.23-.574c.115-.23.23-.344.344-.574a3.043,3.043,0,0,1,.689-.574,2.162,2.162,0,0,1,.918-.23,1.9,1.9,0,0,1,1.377.574,2.326,2.326,0,0,1,.689,1.607h-.918a1.85,1.85,0,0,0-.459-.8,1.042,1.042,0,0,0-.8-.344c-.23,0-.344,0-.459.115l-.344.344c-.115.115-.115.23-.23.344,0,.115-.115.23-.115.344v2.755c0,.115.115.23.115.344s.115.23.23.344l.344.344a.69.69,0,0,0,.459.115,1.042,1.042,0,0,0,.8-.344,1.85,1.85,0,0,0,.459-.8h1.033Z" transform="translate(-172.439 1.044)" fill="#fff"/>
        <path id="Tracé_13736" data-name="Tracé 13736" d="M302.862,17.276a2.238,2.238,0,0,1-.115.918,1.054,1.054,0,0,1-.459.689,2.4,2.4,0,0,1-.689.459,2.238,2.238,0,0,1-.918.115,2.527,2.527,0,0,1-.918-.115,2.11,2.11,0,0,1-1.148-1.148,2.527,2.527,0,0,1-.115-.918V12.8h.918v4.476a1.4,1.4,0,0,0,.344,1.033,1.4,1.4,0,0,0,1.836,0,1.4,1.4,0,0,0,.344-1.033V12.8h.918v4.476Z" transform="translate(-171.67 1.088)" fill="#fff"/>
        <path id="Tracé_13737" data-name="Tracé 13737" d="M307.229,19.572,305.966,16.7h-1.148v2.869H303.9V12.8h2.41a1.7,1.7,0,0,1,.8.115,1.146,1.146,0,0,1,.574.459c.115.23.344.344.344.574a1.7,1.7,0,0,1,.115.8A1.714,1.714,0,0,1,307.8,15.9a1.577,1.577,0,0,1-.918.574l1.377,2.984h-1.033Zm0-4.821a1.659,1.659,0,0,0-.23-.8.968.968,0,0,0-.8-.23h-1.377v2.066H306.2a1.659,1.659,0,0,0,.8-.23A1.658,1.658,0,0,0,307.229,14.751Z" transform="translate(-170.872 1.088)" fill="#fff"/>
        <path id="Tracé_13738" data-name="Tracé 13738" d="M309.1,19.572V12.8h.918v6.772Z" transform="translate(-170.104 1.088)" fill="#fff"/>
        <path id="Tracé_13739" data-name="Tracé 13739" d="M313.74,13.718v5.854h-.918V13.718H311.1V12.8h4.247v.918Z" transform="translate(-169.808 1.088)" fill="#fff"/>
        <path id="Tracé_13740" data-name="Tracé 13740" d="M316,19.853V13.081h3.9V14h-2.984V15.95h2.525v.918h-2.525v2.066H319.9v.918H316Zm2.181-7.461h-.689l.689-1.492h.918Z" transform="translate(-169.084 0.807)" fill="#fff"/>
        <path id="Tracé_13741" data-name="Tracé 13741" d="M190.64,29.472h-.689L188,22.7h.918l1.377,4.935,1.377-4.935h1.033Z" transform="translate(-188 2.551)" fill="#fff"/>
        <path id="Tracé_13742" data-name="Tracé 13742" d="M196.362,29.472l-.459-1.377h-2.41l-.459,1.377H192l2.181-6.772h.689l2.181,6.772Zm-1.607-5.28-.918,2.984h1.836Z" transform="translate(-187.409 2.551)" fill="#fff"/>
        <path id="Tracé_13743" data-name="Tracé 13743" d="M197.7,29.472V22.7h.918v5.854H201.6v.918Z" transform="translate(-186.567 2.551)" fill="#fff"/>
        <path id="Tracé_13744" data-name="Tracé 13744" d="M202.3,29.472V22.7h.918v6.772Z" transform="translate(-185.887 2.551)" fill="#fff"/>
        <path id="Tracé_13745" data-name="Tracé 13745" d="M209.162,26.043v1.492a1.632,1.632,0,0,1-.23.689,2.51,2.51,0,0,1-.344.574,2.4,2.4,0,0,1-.689.459,2.238,2.238,0,0,1-.918.115H204.8V22.6h2.181a2.527,2.527,0,0,1,.918.115,2.4,2.4,0,0,1,.689.459c.115.23.344.344.344.574.115.23.115.459.23.689v1.607Zm-.918,0V24.9a1.659,1.659,0,0,0-.23-.8,1.119,1.119,0,0,0-1.033-.459h-1.148v4.935h1.148a1.119,1.119,0,0,0,1.033-.459,1.659,1.659,0,0,0,.23-.8Z" transform="translate(-185.517 2.536)" fill="#fff"/>
        <path id="Tracé_13746" data-name="Tracé 13746" d="M210.1,29.472V22.7H214v.918h-2.984v1.951h2.525v.918h-2.525v2.066H214v.918Z" transform="translate(-184.734 2.551)" fill="#fff"/>
        <path id="Tracé_13747" data-name="Tracé 13747" d="M219.858,27.291a2.237,2.237,0,0,1-.115.918,2.4,2.4,0,0,1-.459.689,1.463,1.463,0,0,1-.689.459,2.87,2.87,0,0,1-1.607,0,2.4,2.4,0,0,1-.689-.459l.574-.689.344.344a.86.86,0,0,0,.574.115,1.042,1.042,0,0,0,.8-.344,1.4,1.4,0,0,0,.344-1.033V22.7h.918Z" transform="translate(-183.818 2.551)" fill="#fff"/>
        <path id="Tracé_13748" data-name="Tracé 13748" d="M225.362,27.176a2.238,2.238,0,0,1-.115.918,1.054,1.054,0,0,1-.459.689,2.4,2.4,0,0,1-.689.459,2.237,2.237,0,0,1-.918.115,2.527,2.527,0,0,1-.918-.115,2.11,2.11,0,0,1-1.148-1.148,2.527,2.527,0,0,1-.115-.918V22.7h.918v4.476a1.4,1.4,0,0,0,.344,1.033,1.4,1.4,0,0,0,1.836,0,1.4,1.4,0,0,0,.344-1.033V22.7h.918Z" transform="translate(-183.123 2.551)" fill="#fff"/>
        <path id="Tracé_13749" data-name="Tracé 13749" d="M230.262,27.58a1.7,1.7,0,0,1-.115.8,1.146,1.146,0,0,1-.459.574c-.23.115-.459.344-.689.344a2.238,2.238,0,0,1-.918.115,4.127,4.127,0,0,1-1.263-.23,1.785,1.785,0,0,1-.918-.689l.574-.689c.23.23.459.459.689.459a1.953,1.953,0,0,0,.8.115,2.162,2.162,0,0,0,.918-.23,1.042,1.042,0,0,0,.344-.8.97.97,0,0,0-.23-.689l-.23-.23c-.115,0-.23-.115-.459-.115l-.689-.115a1.834,1.834,0,0,1-1.148-.574,1.568,1.568,0,0,1-.459-1.263,1.7,1.7,0,0,1,.115-.8,2.4,2.4,0,0,1,.459-.689,1.463,1.463,0,0,1,.689-.459,1.953,1.953,0,0,1,.8-.115,2.292,2.292,0,0,1,1.033.23,2.059,2.059,0,0,1,.8.574l-.574.689a2.015,2.015,0,0,0-.574-.459,1.456,1.456,0,0,0-.689-.115.894.894,0,0,0-.8.344.968.968,0,0,0-.23.8v.344a.247.247,0,0,0,.23.23,1.869,1.869,0,0,0,.689.344l.689.115a1.631,1.631,0,0,1,.689.23c.115.115.344.23.459.344a.976.976,0,0,1,.344.574C230.147,27.006,230.262,27.35,230.262,27.58Z" transform="translate(-182.399 2.492)" fill="#fff"/>
        <path id="Tracé_13750" data-name="Tracé 13750" d="M234.932,29.846l-.574-.689c-.23.115-.344.23-.574.344a1.456,1.456,0,0,1-.689.115,2.7,2.7,0,0,1-.918-.23,3.044,3.044,0,0,1-.689-.574,2.509,2.509,0,0,1-.344-.574c-.115-.23-.115-.344-.23-.574,0-.23-.115-.459-.115-.689V25.14a1.456,1.456,0,0,1,.115-.689.877.877,0,0,1,.23-.574c.115-.23.23-.344.344-.574a3.043,3.043,0,0,1,.689-.574,2.162,2.162,0,0,1,.918-.23,2.7,2.7,0,0,1,.918.23,3.043,3.043,0,0,1,.689.574,2.509,2.509,0,0,1,.344.574,1.035,1.035,0,0,1,.115.574,1.456,1.456,0,0,0,.115.689v2.41c0,.23-.115.344-.115.574a.87.87,0,0,1-.23.459l.574.689Zm-.574-3.788V24.681c0-.115-.115-.23-.115-.344s-.115-.23-.23-.344l-.344-.344a.976.976,0,0,0-.918,0c-.115.115-.344.23-.344.344-.115.115-.115.23-.23.344,0,.115-.115.23-.115.344v2.755c0,.115.115.23.115.344s.115.23.23.344l.344.344a.69.69,0,0,0,.459.115.877.877,0,0,0,.574-.23l-.689-.689.459-.574.574.689c.115-.115.115-.344.115-.689A2.548,2.548,0,0,0,234.358,26.058Z" transform="translate(-181.675 2.522)" fill="#fff"/>
        <path id="Tracé_13751" data-name="Tracé 13751" d="M240.462,27.176a2.237,2.237,0,0,1-.115.918,1.054,1.054,0,0,1-.459.689,2.4,2.4,0,0,1-.689.459,2.237,2.237,0,0,1-.918.115,2.527,2.527,0,0,1-.918-.115,2.11,2.11,0,0,1-1.148-1.148,2.527,2.527,0,0,1-.115-.918V22.7h.918v4.476a1.4,1.4,0,0,0,.344,1.033,1.4,1.4,0,0,0,1.836,0,1.4,1.4,0,0,0,.344-1.033V22.7h.918Z" transform="translate(-180.892 2.551)" fill="#fff"/>
        <path id="Tracé_13752" data-name="Tracé 13752" d="M241.4,24.536V22.7h.918v1.033Z" transform="translate(-180.109 2.551)" fill="#fff"/>
        <path id="Tracé_13753" data-name="Tracé 13753" d="M243.8,29.472V22.7h3.9v.918h-2.984v1.951h2.525v.918h-2.525v2.066H247.7v.918Z" transform="translate(-179.754 2.551)" fill="#fff"/>
        <path id="Tracé_13754" data-name="Tracé 13754" d="M252.388,29.472l-2.869-4.821v4.821H248.6V22.7h.8l2.869,4.706V22.7h.918v6.772h-.8Z" transform="translate(-179.045 2.551)" fill="#fff"/>
        <path id="Tracé_13755" data-name="Tracé 13755" d="M259.258,27.291a2.237,2.237,0,0,1-.115.918,2.4,2.4,0,0,1-.459.689,1.463,1.463,0,0,1-.689.459,2.87,2.87,0,0,1-1.607,0,2.4,2.4,0,0,1-.689-.459l.574-.689.344.344a.86.86,0,0,0,.574.115,1.042,1.042,0,0,0,.8-.344,1.4,1.4,0,0,0,.344-1.033V22.7h.918v4.591Z" transform="translate(-177.995 2.551)" fill="#fff"/>
        <path id="Tracé_13756" data-name="Tracé 13756" d="M264.762,27.176a2.238,2.238,0,0,1-.115.918,1.054,1.054,0,0,1-.459.689,2.4,2.4,0,0,1-.689.459,2.237,2.237,0,0,1-.918.115,2.527,2.527,0,0,1-.918-.115,2.11,2.11,0,0,1-1.148-1.148,2.527,2.527,0,0,1-.115-.918V22.7h.918v4.476a1.4,1.4,0,0,0,.344,1.033,1.4,1.4,0,0,0,1.836,0,1.4,1.4,0,0,0,.344-1.033V22.7h.918v4.476Z" transform="translate(-177.301 2.551)" fill="#fff"/>
        <path id="Tracé_13757" data-name="Tracé 13757" d="M265.8,29.472V22.7h.918v6.772Z" transform="translate(-176.503 2.551)" fill="#fff"/>
        <path id="Tracé_13758" data-name="Tracé 13758" d="M271.988,29.472l-2.869-4.821v4.821H268.2V22.7h.8l2.869,4.706V22.7h.918v6.772h-.8Z" transform="translate(-176.148 2.551)" fill="#fff"/>
        <path id="Tracé_13759" data-name="Tracé 13759" d="M275.815,29.472v-.918l2.3-3.214a.87.87,0,0,0,.23-.459c0-.115.115-.344.115-.459a.97.97,0,0,0-.23-.689c-.115-.23-.344-.23-.689-.23h-.344a.247.247,0,0,0-.23.23c-.115.115-.115.23-.23.344,0,.115-.115.344-.115.459H275.7a1.953,1.953,0,0,1,.115-.8,2.51,2.51,0,0,1,.344-.574.976.976,0,0,1,.574-.344,2.123,2.123,0,0,1,1.377,0,2.508,2.508,0,0,1,.574.344,2.507,2.507,0,0,1,.344.574,1.7,1.7,0,0,1,.115.8,1.7,1.7,0,0,1-.115.8,2.4,2.4,0,0,1-.459.689l-1.951,2.64h2.525v.918h-3.329Z" transform="translate(-175.04 2.551)" fill="#fff"/>
        <path id="Tracé_13760" data-name="Tracé 13760" d="M283.543,27.621a1.7,1.7,0,0,1-.115.8,2.51,2.51,0,0,1-.344.574.976.976,0,0,1-.574.344,2.123,2.123,0,0,1-1.377,0c-.23-.115-.344-.23-.574-.344a2.507,2.507,0,0,1-.344-.574,1.7,1.7,0,0,1-.115-.8V24.636a1.7,1.7,0,0,1,.115-.8,2.51,2.51,0,0,1,.344-.574.976.976,0,0,1,.574-.344,2.123,2.123,0,0,1,1.377,0c.23.115.344.23.574.344a2.508,2.508,0,0,1,.344.574,1.7,1.7,0,0,1,.115.8Zm-.8-2.984a1.659,1.659,0,0,0-.23-.8.694.694,0,0,0-.689-.344.992.992,0,0,0-.689.344,1.659,1.659,0,0,0-.23.8v2.984a1.659,1.659,0,0,0,.23.8.694.694,0,0,0,.689.344.992.992,0,0,0,.689-.344,1.659,1.659,0,0,0,.23-.8Z" transform="translate(-174.39 2.566)" fill="#fff"/>
        <path id="Tracé_13761" data-name="Tracé 13761" d="M284.415,29.472v-.918l2.3-3.214a.87.87,0,0,0,.23-.459c0-.115.115-.344.115-.459a.97.97,0,0,0-.23-.689c-.115-.23-.344-.23-.689-.23h-.344a.247.247,0,0,0-.23.23c-.115.115-.115.23-.23.344,0,.115-.115.344-.115.459H284.3a1.953,1.953,0,0,1,.115-.8,2.51,2.51,0,0,1,.344-.574.976.976,0,0,1,.574-.344,2.123,2.123,0,0,1,1.377,0,2.508,2.508,0,0,1,.574.344,2.507,2.507,0,0,1,.344.574,1.7,1.7,0,0,1,.115.8,1.7,1.7,0,0,1-.115.8,2.4,2.4,0,0,1-.459.689l-1.951,2.64h2.525v.918h-3.329Z" transform="translate(-173.769 2.551)" fill="#fff"/>
        <path id="Tracé_13762" data-name="Tracé 13762" d="M292.173,27.55a1.7,1.7,0,0,1-.115.8,1.146,1.146,0,0,1-.459.574.976.976,0,0,1-.574.344,2.123,2.123,0,0,1-1.377,0,1.985,1.985,0,0,1-1.033-.918,1.953,1.953,0,0,1-.115-.8h.918c0,.23,0,.344.115.459s.115.23.23.344.23.115.344.23h.344a.818.818,0,0,0,.689-.344.968.968,0,0,0,.23-.8,1.659,1.659,0,0,0-.23-.8.894.894,0,0,0-.8-.344h-.115v-.8h.115a.97.97,0,0,0,.689-.23,1.521,1.521,0,0,0,0-1.607c-.23-.23-.344-.23-.689-.23a1.631,1.631,0,0,0-.689.23,1.23,1.23,0,0,0-.23.689H288.5c0-.23.115-.574.115-.8a2.511,2.511,0,0,1,.344-.574,2.509,2.509,0,0,1,.574-.344,2.123,2.123,0,0,1,1.377,0,2.509,2.509,0,0,1,.574.344,2.508,2.508,0,0,1,.344.574,1.7,1.7,0,0,1,.115.8,2.162,2.162,0,0,1-.23.918,1.383,1.383,0,0,1-.574.574,1.383,1.383,0,0,1,.574.574A1.366,1.366,0,0,1,292.173,27.55Z" transform="translate(-173.148 2.522)" fill="#fff"/>
      </g>
    </g>
  </g>
</svg>
